<?xml version="1.0" ?>
<!DOCTYPE svg PUBLIC '-//W3C//DTD SVG 1.1//EN' 'http://www.w3.org/Graphics/SVG/1.1/DTD/svg11.dtd'><svg height="512px"
    id="形状_2_1_" style="enable-background:new 0 0 512 512;" version="1.1" viewBox="0 0 512 512" width="512px"
    xml:space="preserve" xmlns="http://www.w3.org/2000/svg" xmlns:xlink="http://www.w3.org/1999/xlink">
    <g id="形状_2">
        <g>
            <path
                d="M421.258,251.986h9.883l1.217-5.994h-17.837    c0.48-0.721,0.902-1.557,1.229-2.493h14.702l1.219-5.994h-5.305c2.303-2.331,4.372-4.257,6.222-5.755l-6.173-3.987    c-1.983,2.617-4.148,5.162-6.49,7.606l3.726,2.368h-5.292l0.75-2.485l0.993-2.526c0.812-2.126,1.453-3.7,1.913-4.719    c0.046-0.414-0.22-0.65-1.049-0.746c-1.552-0.257-4.018-0.417-7.373-0.503c-1.019,4.371-1.949,7.811-2.894,10.747h-4.703    l1.504-1.034c2.633-1.773,3.949-2.709,3.977-2.85c-1.397-3.274-2.632-5.49-3.718-6.617c-0.032-0.214-1.981,0.995-5.854,3.596    l-1.319,0.902c0.023,0.069,0.181,0.305,0.483,0.72c1.357,1.83,2.476,3.586,3.367,5.283h-3.854l-1.227,5.994h8.686l-0.621,1.243    l-0.608,1.25h-9.402l-1.217,5.994h6.509c-2.439,3.09-5.267,5.632-8.501,7.652l-0.005,0.011c-0.47,0.281-0.938,0.562-1.413,0.835    l0.176-0.846l5.953-29.379h-16.87l-5.958,29.379l-0.377,1.843c-1.438,7.017-3.829,13.235-7.161,18.672    c1.789,1.627,3.286,3.374,4.49,5.246c3.531-5.222,6.339-11.949,8.427-20.179h3.609l-2.07,10.25    c-0.164,1.392-1.49,1.971-3.97,1.743c0.517,2.505,0.679,5.06,0.492,7.681c6.017-0.043,9.084-1.499,9.196-4.369l3.613-17.803    c1.335,1.384,2.289,2.753,2.894,4.128c0.921-0.473,2.005-1.268,3.251-2.364l-2.236,7.489h20.246l-0.405,1.992    c-0.799,4.045-1.905,5.941-3.316,5.681l1.15-5.681h-21.693l-1.206,5.941h17.601c1.011,2.244,1.417,4.579,1.233,6.988    c5.619-0.194,9.097-1.108,10.438-2.749c0.419-0.48,0.821-1.329,1.283-2.753c0.916-2.854,2.042-7.026,3.375-12.503l0.757-3.163    h-7.464l0.955-4.753c2.328,2.103,4.179,3.485,5.549,4.127c1.602-2.065,3.126-3.9,4.571-5.465c0.638-0.688,1.257-1.313,1.867-1.905    C426.656,256.4,423.353,254.487,421.258,251.986z M386.338,258.976h-3.614l1.623-7.99h3.605L386.338,258.976z M389.179,244.998    h-3.619l1.717-8.495h3.626L389.179,244.998z M410.948,265.989h-6.017c0.464-1.647,0.895-2.997,1.3-4.007    c-0.302-0.171-0.524-0.249-0.679-0.249h-3.628l1.513-1.498h8.679L410.948,265.989z M408.939,254.487l0.981-1.241l0.97-1.26h2.173    c0.291,0.845,0.679,1.689,1.181,2.501H408.939z M454.194,238.755c-1.973-7.37-3.054-11.202-3.215-11.494    c-1.884,0.639-4.852,1.859-8.918,3.619c1.272,3.793,2.231,7.577,2.873,11.365C446.38,241.683,449.456,240.519,454.194,238.755z     M479.701,269.343c-1.261,4.033-2.045,5.316-2.365,3.884c-0.646-2.684-0.289-7.188,1.058-13.56h0.008    c0.013-0.07,0.022-0.128,0.039-0.19l5.873-28.961h-26.52l-1.411,6.989h5.549l-2.638,12.988h-6.993l-1.416,7.001h6.988    l-0.431,2.145l-5.07,25.023h7.713l5.067-25.023l0.434-2.145h5.544l-0.436,2.145l-0.628,3.084    c-1.713,8.265-1.081,14.661,1.905,19.182c1.729,2.551,3.838,3.636,6.33,3.246c2.578,0.137,5.143-4.164,7.68-12.931    C483.67,271.131,481.577,270.197,479.701,269.343z M472.787,250.493h-5.78l2.63-12.988h5.783L472.787,250.493z M452.515,264.035    l-1.376-3.059l-1.371,1.254c-2.429,2.231-4.182,3.768-5.233,4.62l1.461-7.212l2.837-14.012h-14.338l-1.425,6.994h6.869    l-1.43,7.018l-2.363,11.704c-0.318,1.568-1.519,3.23-3.598,5.001c-0.625,0.519-0.947,0.854-0.998,0.998    c0.77,2.471,2.095,4.828,4.004,7.063c0.145,0.034,0.926-0.675,2.321-2.132c2.096-2.291,7.433-7.354,16.003-15.17    C453.848,266.991,453.393,265.989,452.515,264.035z M339.911,242.274h-10.1l-1.981,8.242h37.096l-22.357-19.268L339.911,242.274z     M309.818,241.081c-5.357,0-10.582,1.715-15.682,5.184l-11.3-3.99l-4.196,17.364l-6.24,25.872h12.271l5.022-20.862    c0.456-1.855,0.947-3.519,1.503-4.989h0.009c1.051-2.803,2.283-4.919,3.717-6.339c2.24-2.186,5.375-3.279,9.428-3.279    c3.718,0,6.086,0.832,7.097,2.484c0.911,1.399,1.043,3.775,0.409,7.113c-0.094,0.546-0.22,1.126-0.363,1.729l-5.83,24.143h12.259    l6.24-25.872l0.152-0.631c1.475-6.093,1.049-10.481-1.263-13.182C320.376,242.656,315.959,241.081,309.818,241.081z     M79.162,226.103H28.056l-2.037,8.43h19.264l-6.057,25.106l-6.24,25.872h12.64l6.239-25.872l6.058-25.106h19.211L79.162,226.103z     M93.646,239.832c-7.71,0-14.404,2.077-20.076,6.264c-4.783,3.59-8.136,8.11-10.048,13.543l0.005,0.028h-0.005    c-0.349,0.981-0.643,1.984-0.891,3.03c-1.668,6.89-0.617,12.426,3.146,16.603c3.777,4.145,9.615,6.211,17.494,6.211    c13.422,0,23.669-8.467,24.713-9.394l-5.797-1.408c-1.367,0.323-8.856,2.583-16.334,1.88c-9.418-0.878-11.571-8.041-11.034-11.593    h37.868l0.62-2.352c0.249-1.036,0.448-2.058,0.592-3.006h-0.346l0.346-0.025c0.816-5.701-0.285-10.259-3.283-13.696    C107.077,241.869,101.413,239.832,93.646,239.832z M77.604,256.839c0.695-1.258,1.547-2.359,2.538-3.34    c0.997-0.974,2.094-1.802,3.31-2.48c1.26-0.704,2.577-1.243,3.964-1.599c1.398-0.389,2.835-0.57,4.322-0.57    c6.512,0,9.965,2.665,10.387,7.989H77.604z M251.45,239.832c-7.709,0-14.404,2.077-20.076,6.264    c-4.782,3.59-8.135,8.11-10.048,13.543l0.006,0.028h-0.006c-0.348,0.981-0.642,1.984-0.89,3.03    c-1.667,6.89-0.617,12.426,3.146,16.603c3.777,4.145,9.615,6.211,17.494,6.211c13.422,0,23.669-8.467,24.712-9.394l-5.796-1.408    c-1.367,0.323-8.857,2.583-16.334,1.88c-9.419-0.878-11.571-8.041-11.033-11.593h37.866l0.621-2.352    c0.249-1.036,0.447-2.058,0.592-3.006h-0.346l0.346-0.025c0.818-5.701-0.284-10.259-3.283-13.696    C264.879,241.869,259.217,239.832,251.45,239.832z M235.407,256.839c0.696-1.258,1.548-2.359,2.539-3.34    c0.998-0.974,2.094-1.802,3.311-2.48c1.26-0.704,2.576-1.243,3.964-1.599c1.397-0.389,2.835-0.57,4.321-0.57    c6.513,0,9.965,2.665,10.389,7.989H235.407z M335.729,259.639l-6.244,25.872h12.197l6.25-25.872l1.756-7.254h-12.213    L335.729,259.639z M205.75,239.832c-8.103,0-15.468,2.219-22.105,6.652c-5.532,3.697-9.294,8.087-11.299,13.154v0.028    c-0.406,1.031-0.736,2.074-1.001,3.159c-1.561,6.455-0.112,11.851,4.334,16.205c4.467,4.314,10.773,6.479,18.95,6.479    c4.957,0,10.16-1.056,15.618-3.15l3.187-13.191c-3.634,2.907-6.649,4.865-9.067,5.871c-2.492,1.027-5.204,1.549-8.139,1.549    c-4.583,0-8.049-1.301-10.391-3.908c-2.299-2.604-2.966-5.937-1.983-9.983c0.26-1.063,0.612-2.086,1.059-3.051h0.009    c1.238-2.637,3.196-4.923,5.884-6.848c3.667-2.643,7.803-3.949,12.395-3.949c2.927,0,5.354,0.529,7.263,1.59    c1.954,1.042,3.995,2.938,6.102,5.726l3.21-13.274C215.641,240.85,210.967,239.832,205.75,239.832z M153.074,241.081    c-5.354,0-10.579,1.715-15.679,5.184l-11.299-3.99l-4.19,17.364l-6.244,25.872h12.264l5.039-20.862    c0.438-1.855,0.939-3.519,1.49-4.989h0.004c1.047-2.803,2.294-4.919,3.727-6.339c2.227-2.186,5.366-3.279,9.417-3.279    c3.728,0,6.095,0.832,7.107,2.484c0.905,1.399,1.038,3.775,0.4,7.113c-0.095,0.546-0.219,1.126-0.364,1.729l-5.83,24.143h12.277    l6.227-25.872l0.156-0.631c1.47-6.093,1.048-10.481-1.267-13.182C163.635,242.656,159.227,241.081,153.074,241.081z"
                style="fill-rule:evenodd;clip-rule:evenodd;fill:#014099;" />
        </g>
    </g>
</svg>